<?xml version="1.0" encoding="utf-8"?>
<svg viewBox="209.586 106.983 50 50" xmlns="http://www.w3.org/2000/svg">
  <g transform="matrix(1, 0, 0, 1, 197.755096, 106.938774)">
    <title>Layer 1</title>
    <rect id="svg_1" fill="none" height="80" width="80"/>
    <g id="svg_2">
      <path id="svg_3" fill="#D9D9D9" d="m14.116,12.352c0.366,-0.274 1.42,-1.19 1.42,-1.19s0.504,-0.414 0.412,0.274c-0.092,0.687 -0.687,3.664 -0.687,4.626c0,0.962 -0.138,2.703 0.549,2.703c0.688,0 0.779,-1.145 0.733,-1.695c-0.046,-0.55 0.091,-2.611 0.229,-3.069c0.137,-0.458 0.641,-0.458 0.641,0.091c0,0.55 -0.092,4.443 -0.092,4.443s-0.091,1.329 0.55,1.329c0.641,0 0.596,-0.642 0.596,-1.008c0,-0.366 -0.046,-3.71 -0.046,-3.71s0.046,-1.282 0.32,-1.191c0.275,0.092 0.367,0.276 0.367,0.962c0,0.688 0.045,3.344 0.045,3.481s0.001,1.007 0.596,1.007c0.596,0 0.413,-0.594 0.413,-0.916c0,-0.321 -0.092,-2.703 -0.092,-2.703s-0.046,-2.152 0.092,-2.152s0.596,-0.367 0.55,0.32c0.046,1.191 0.137,2.245 0.183,2.381c0.046,0.138 0.046,1.055 0.55,1.055c0.504,0 0.412,-1.008 0.275,-1.42c-0.092,-1.328 -0.13,-2.818 0.045,-3.389c0.184,-0.596 0.458,-1.603 0.504,-2.474c0.137,-2.153 -0.184,-3.207 0.091,-3.756c0.275,-0.549 0.596,-1.236 1.1,-2.335c0.27,-0.591 1.124,-2.322 1.913,-4.016l-5.012,0c-0.658,2.33 -1.533,4.489 -1.666,4.932c-0.275,0.917 -0.504,1.42 -1.007,1.879c0,0 -1.787,1.648 -2.291,2.152c-0.504,0.504 -1.878,2.611 -2.153,2.794c-0.274,0.183 -1.053,0.504 -0.686,0.825c0.367,0.32 1.191,0.045 1.558,-0.23z"/>
      <path id="svg_4" fill="#D9D9D9" d="m30.788,1.359c-0.32,1.832 -0.504,3.71 -0.688,7.008c0,0 -0.045,5.91 0.275,9.299c0.321,3.389 1.604,11.542 1.695,12.596c0.092,1.053 0,4.443 -0.55,6.641c-0.55,2.199 -2.153,5.267 -1.511,13.467c0.366,4.352 1.328,8.245 1.328,8.245s0.504,1.969 0.183,2.61c-0.32,0.641 -0.641,1.328 -0.55,2.198c0.092,0.87 -0.137,1.328 -0.412,1.785c-0.275,0.46 -0.733,1.879 -0.917,2.153c-0.183,0.276 -1.511,1.969 -2.015,2.566c-0.503,0.596 -1.832,3.664 -0.458,4.168c0.138,0.594 0.138,1.145 0.596,1.191c0.138,0.549 0.275,1.052 0.825,1.145c0.321,0.503 0.778,0.549 1.375,0.274c0,0 0.412,1.099 1.877,0.641c0.733,-0.091 0.779,-1.511 1.008,-1.878c0.458,-0.595 0.688,-1.099 0.732,-1.739c0.046,-0.643 -0.091,-2.84 0.321,-3.757c0.413,-0.917 0.596,-2.656 0.596,-2.931s0.596,-1.513 0.641,-1.97c0.046,-0.458 0.092,-0.962 0.274,-1.191c0.184,-0.229 0.229,-1.054 0.093,-1.832c-0.138,-0.779 -0.275,-2.29 0.045,-3.803c0.32,-1.511 0.916,-5.357 1.832,-8.151s1.466,-4.947 1.374,-7.741c-0.091,-2.794 0.412,-4.672 0.871,-6.735c0.458,-2.06 0.917,-4.58 0.961,-6c0.046,-1.42 1.008,-7.099 1.282,-8.886c0.275,-1.787 1.774,-9.024 1.821,-9.391c0.315,0.216 1.161,0.429 2.32,-0.01c0.32,1.877 1.218,7.98 1.218,8.164c0,0 1.421,6.733 1.512,8.52c0.092,1.786 0.275,5.176 1.1,7.374c0.825,2.198 0.825,3.985 0.961,4.902c0.139,0.915 -0.319,4.992 1.236,9.618c1.558,4.627 2.062,8.61 2.062,9.802c0.184,2.794 -0.505,2.841 -0.366,3.711c0.137,0.87 0.732,1.558 0.824,2.016c0,0 0.916,3.938 1.053,4.717c0.138,0.779 0.229,3.16 0.412,4.307c0.047,0.825 0.642,1.236 0.871,1.832c0,0 0.595,1.327 1.877,1.008c0.504,-0.229 0.596,-0.596 0.596,-0.596s0.733,0.503 1.375,-0.229c0.641,-0.138 0.87,-0.274 0.961,-1.053c0.367,-0.137 0.459,-0.411 0.505,-0.917c0.046,-0.503 0.046,-0.596 0.32,-0.686c0.274,-0.092 0.595,-1.375 0.274,-2.108c-0.32,-0.732 -3.022,-4.809 -3.481,-5.543c-0.457,-0.731 -0.777,-1.738 -0.87,-2.243c-0.091,-0.504 0,-1.374 -0.366,-2.428c-0.366,-1.053 -0.55,-1.604 -0.32,-2.383c0,0 2.198,-7.189 2.016,-11.771c-0.229,-8.428 -2.291,-11.36 -2.382,-12.963c-0.092,-1.603 0.046,-6 0.412,-7.786s1.878,-13.008 1.512,-16.443c-0.146,-4.844 -0.595,-8.142 -0.982,-10.153l-27.279,0c-0.107,0.483 -0.203,0.946 -0.275,1.359z"/>
    </g>
    <path stroke="null" id="svg_5" d="m42.42487,13.65204c1.58487,0.61213 2.63413,1.52957 2.63413,2.78413c0,2.58185 -4.44703,3.73793 -8.85467,3.73793s-8.85467,-1.15532 -8.85467,-3.73793c0,-1.35532 1.22502,-2.31821 3.02656,-2.9258m0.00076,0c1.63033,-0.55077 3.73414,-0.81137 5.82735,-0.81137c2.26594,0 4.54249,0.30531 6.22054,0.95304m-12.76608,2.78413c0.39622,0.47576 2.63413,1.46517 6.54554,1.46517s6.14857,-0.98941 6.54554,-1.46517c-0.39622,-0.47576 -2.63413,-1.46517 -6.54554,-1.46517c-3.19398,0 -5.27128,0.65986 -6.14175,1.16062m0,0"/>
    <path stroke="null" id="svg_6" fill="#999999" d="m29.87751,16.33117c0.92112,-0.5299 3.1201,-1.22816 6.49914,-1.22816c3.76544,0 6.05982,0.865 6.75968,1.40052c-0.28379,-0.96281 -0.35995,-1.99856 -0.35514,-2.85876c-1.75726,-0.64053 -4.08291,-0.94677 -6.40374,-0.94677c-2.21582,0 -4.44125,0.27577 -6.16645,0.85859c-0.06253,0.02084 -0.11865,0.0465 -0.18038,0.06814c-0.01203,0.87863 -0.097,1.95367 -0.36797,2.86918l0.21485,-0.16274z"/>
  </g>
</svg>